M48
; DRILL file {KiCad 9.0.7} date 2026-03-10T17:22:07+0100
; FORMAT={-:-/ absolute / metric / decimal}
; #@! TF.CreationDate,2026-03-10T17:22:07+01:00
; #@! TF.GenerationSoftware,Kicad,Pcbnew,9.0.7
; #@! TF.FileFunction,MixedPlating,1,2
FMAT,2
METRIC
; #@! TA.AperFunction,Plated,PTH,ComponentDrill
T1C0.750
; #@! TA.AperFunction,Plated,PTH,ViaDrill
T2C0.800
; #@! TA.AperFunction,Plated,PTH,ComponentDrill
T3C0.800
; #@! TA.AperFunction,Plated,PTH,ComponentDrill
T4C1.000
; #@! TA.AperFunction,Plated,PTH,ComponentDrill
T5C1.020
; #@! TA.AperFunction,Plated,PTH,ComponentDrill
T6C1.100
; #@! TA.AperFunction,NonPlated,NPTH,ComponentDrill
T7C3.200
%
G90
G05
T1
X123.4Y-60.2
X125.4Y-60.2
T2
X131.35Y-63.45
X134.3Y-65.5
X135.9Y-58.9
X140.7Y-103.0
X142.5Y-57.3
X145.4Y-109.44
T3
X122.137Y-48.9
X124.137Y-48.9
X126.137Y-48.9
X128.137Y-48.9
X133.1Y-108.3
X133.1Y-110.3
X133.1Y-112.3
X133.1Y-114.3
X135.56Y-99.6
X141.8Y-108.3
X141.8Y-110.3
X141.8Y-112.3
X141.8Y-114.3
X143.8Y-61.3
X143.8Y-63.3
X143.8Y-65.3
X143.8Y-67.3
X145.72Y-99.6
X150.5Y-61.3
X150.5Y-63.3
X150.5Y-65.3
X150.5Y-67.3
X150.6Y-108.3
X150.6Y-110.3
X150.6Y-112.3
X150.6Y-114.3
X156.9Y-61.3
X156.9Y-63.3
X156.9Y-65.3
X156.9Y-67.3
X158.938Y-119.2
X160.938Y-119.2
X162.938Y-119.2
X164.938Y-119.2
X180.72Y-75.5
X180.72Y-79.0
X181.32Y-92.1
X190.88Y-75.5
X190.88Y-79.0
X191.48Y-92.1
X200.8Y-71.6
X200.8Y-73.6
X200.8Y-75.6
X200.8Y-77.6
X200.9Y-83.0
X200.9Y-85.0
X200.9Y-87.0
X200.9Y-89.0
T4
X132.94Y-72.5
X132.952Y-95.338
X135.48Y-72.5
X135.492Y-95.338
X138.02Y-72.5
X138.032Y-95.338
X140.56Y-72.5
X140.572Y-95.338
X143.1Y-72.5
X143.112Y-95.338
X145.64Y-72.5
X145.652Y-95.338
X148.18Y-72.5
X148.192Y-95.338
X150.72Y-72.5
X150.732Y-95.338
X153.26Y-72.5
X153.272Y-95.338
X155.8Y-72.5
X155.812Y-95.338
X158.32Y-100.8
X158.34Y-72.5
X158.352Y-95.338
X160.86Y-100.8
X160.88Y-72.5
X160.892Y-95.338
X163.4Y-100.8
X163.42Y-72.5
X163.432Y-95.338
X165.94Y-100.8
X165.96Y-72.5
X165.972Y-95.338
X168.48Y-100.8
X168.5Y-72.5
X168.512Y-95.338
X171.02Y-100.8
X171.04Y-72.5
X171.052Y-95.338
X173.56Y-100.8
X176.1Y-100.8
T5
X131.29Y-54.115
X133.83Y-54.115
X136.37Y-54.115
X138.91Y-54.115
X143.415Y-46.49
X143.415Y-49.03
X143.415Y-51.57
X143.415Y-54.11
T6
X191.6Y-99.325
X191.6Y-114.325
T7
X123.2Y-120.7
X136.4Y-47.4
X173.9Y-120.6
X200.8Y-47.6
M30
